<svg xmlns="http://www.w3.org/2000/svg" width="78" height="71" viewBox="0 0 78 71">
  <metadata><?xpacket begin="﻿" id="W5M0MpCehiHzreSzNTczkc9d"?>
<x:xmpmeta xmlns:x="adobe:ns:meta/" x:xmptk="Adobe XMP Core 5.6-c138 79.159824, 2016/09/14-01:09:01        ">
   <rdf:RDF xmlns:rdf="http://www.w3.org/1999/02/22-rdf-syntax-ns#">
      <rdf:Description rdf:about=""/>
   </rdf:RDF>
</x:xmpmeta>
                                                                                                    
                                                                                                    
                                                                                                    
                                                                                                    
                                                                                                    
                                                                                                    
                                                                                                    
                                                                                                    
                                                                                                    
                                                                                                    
                                                                                                    
                                                                                                    
                                                                                                    
                                                                                                    
                                                                                                    
                                                                                                    
                                                                                                    
                                                                                                    
                                                                                                    
                                                                                                    
                           
<?xpacket end="w"?></metadata>
<defs>
    <style>
      .cls-1 {
        fill: #fff;
        fill-rule: evenodd;
      }
    </style>
  </defs>
  <path class="cls-1" d="M37.439,0.591a5.589,5.589,0,0,0-5.531,4.532H31.764L13.607,25.562h9.078L35.244,11.442a5.652,5.652,0,0,0,2.195.5,5.719,5.719,0,0,0,2.208-.5L52.191,25.562h9.093L43.114,5.123H42.969A5.565,5.565,0,0,0,37.439.591h0ZM4.53,30.1A4.537,4.537,0,0,0-.016,34.644v2.27a4.486,4.486,0,0,0,4.192,4.47l7.159,25.039c2.272,4.543,4.546,4.543,6.8,4.543H59.01c2.274,0,4.532,0,6.806-4.543l7.173-25.039a4.485,4.485,0,0,0,4.177-4.47v-2.27A4.527,4.527,0,0,0,72.634,30.1H4.53ZM17.3,41.448h1.129A5.844,5.844,0,0,1,23.96,45.7l3.192,14.123a3.462,3.462,0,0,1-3.614,4.322H22.4a5.9,5.9,0,0,1-5.53-4.322L13.673,45.7A3.427,3.427,0,0,1,17.3,41.448h0Zm21.283,0a4.527,4.527,0,0,1,4.532,4.546v13.62a4.539,4.539,0,0,1-9.078,0V45.994a4.537,4.537,0,0,1,4.546-4.546h0Zm20.139,0h1.143A3.42,3.42,0,0,1,63.477,45.7L60.285,59.828a5.893,5.893,0,0,1-5.531,4.322H53.61A3.464,3.464,0,0,1,50,59.828L53.19,45.7a5.847,5.847,0,0,1,5.531-4.257h0Z"/>
</svg>
