<svg xmlns="http://www.w3.org/2000/svg" width="71" height="61" viewBox="0 0 71 61">
  <metadata><?xpacket begin="﻿" id="W5M0MpCehiHzreSzNTczkc9d"?>
<x:xmpmeta xmlns:x="adobe:ns:meta/" x:xmptk="Adobe XMP Core 5.6-c138 79.159824, 2016/09/14-01:09:01        ">
   <rdf:RDF xmlns:rdf="http://www.w3.org/1999/02/22-rdf-syntax-ns#">
      <rdf:Description rdf:about=""/>
   </rdf:RDF>
</x:xmpmeta>
                                                                                                    
                                                                                                    
                                                                                                    
                                                                                                    
                                                                                                    
                                                                                                    
                                                                                                    
                                                                                                    
                                                                                                    
                                                                                                    
                                                                                                    
                                                                                                    
                                                                                                    
                                                                                                    
                                                                                                    
                                                                                                    
                                                                                                    
                                                                                                    
                                                                                                    
                                                                                                    
                           
<?xpacket end="w"?></metadata>
<defs>
    <style>
      .cls-1 {
        fill: #fff;
        fill-rule: evenodd;
      }
    </style>
  </defs>
  <path class="cls-1" d="M8.462,0.2A8.277,8.277,0,0,0,.172,8.5V39.594a8.27,8.27,0,0,0,8.29,8.292H27.117V54.1h-8.29a2.077,2.077,0,0,0-2.075,2.075v4.149H54.071V56.175A2.077,2.077,0,0,0,52,54.1h-8.29V47.886H62.361a8.27,8.27,0,0,0,8.29-8.292V8.5A8.277,8.277,0,0,0,62.361.2H8.462Zm2.075,8.3H60.286a2.064,2.064,0,0,1,2.075,2.066V37.521a2.07,2.07,0,0,1-2.075,2.072H10.537a2.076,2.076,0,0,1-2.075-2.072V10.565A2.07,2.07,0,0,1,10.537,8.5h0Z"/>
</svg>
