<svg xmlns="http://www.w3.org/2000/svg" width="57" height="80" viewBox="0 0 57 80">
  <metadata><?xpacket begin="﻿" id="W5M0MpCehiHzreSzNTczkc9d"?>
<x:xmpmeta xmlns:x="adobe:ns:meta/" x:xmptk="Adobe XMP Core 5.6-c138 79.159824, 2016/09/14-01:09:01        ">
   <rdf:RDF xmlns:rdf="http://www.w3.org/1999/02/22-rdf-syntax-ns#">
      <rdf:Description rdf:about=""/>
   </rdf:RDF>
</x:xmpmeta>
                                                                                                    
                                                                                                    
                                                                                                    
                                                                                                    
                                                                                                    
                                                                                                    
                                                                                                    
                                                                                                    
                                                                                                    
                                                                                                    
                                                                                                    
                                                                                                    
                                                                                                    
                                                                                                    
                                                                                                    
                                                                                                    
                                                                                                    
                                                                                                    
                                                                                                    
                                                                                                    
                           
<?xpacket end="w"?></metadata>
<defs>
    <style>
      .cls-1 {
        fill: #fff;
        fill-rule: evenodd;
      }
    </style>
  </defs>
  <path class="cls-1" d="M55.379,18.586l-4.8,7.7L26.633,11.377l4.794-7.7a7.257,7.257,0,0,1,10-2.326L53.055,8.592A7.257,7.257,0,0,1,55.379,18.586ZM26.587,64.742L2.691,49.835,24.81,14.38,48.707,29.3Zm3.226-41.384a2.316,2.316,0,0,0-3.213.636L10.874,49.183a2.3,2.3,0,0,0,.849,3.161,2.334,2.334,0,0,0,3.217-.613l15.722-25.2A2.334,2.334,0,0,0,29.813,23.357Zm8.658,5.4a2.33,2.33,0,0,0-3.218.634L19.525,54.59A2.408,2.408,0,0,0,23.6,57.131L39.329,31.945A2.35,2.35,0,0,0,38.471,28.759Zm-24.637,44.7a14.493,14.493,0,0,0-5.428-6.112A14.488,14.488,0,0,0,.533,65.174L0.1,54.062l23.876,14.9ZM7.1,69.437a11.33,11.33,0,0,1,4.394,5.056L1.073,79.114,0.629,67.725A11.364,11.364,0,0,1,7.1,69.437Z"/>
</svg>
